<svg data-v-423bf9ae="" xmlns="http://www.w3.org/2000/svg" viewBox="0 0 85.26912934391254 60" class="font"><!----><!----><defs data-v-423bf9ae=""><linearGradient data-v-423bf9ae="" gradientTransform="rotate(25)" id="00ba9810-bb10-4bfb-bc77-caf8e976ff29" x1="0%" y1="0%" x2="100%" y2="0%"><stop data-v-423bf9ae="" offset="0%" style="stop-color: rgb(146, 13, 233); stop-opacity: 1;"></stop><stop data-v-423bf9ae="" offset="100%" style="stop-color: rgb(21, 54, 241); stop-opacity: 1;"></stop></linearGradient></defs><g data-v-423bf9ae="" id="134f5640-b8b8-4233-9043-8f11dc8cbb46" fill="url(#00ba9810-bb10-4bfb-bc77-caf8e976ff29)" transform="matrix(5.665722808190145,0,0,5.665722808190145,-0.9631737806281109,-40.33994526908616)"><path d="M1.22 17.60L0.17 17.60L3.12 7.24L4.60 7.24L7.55 17.60L6.50 17.60L5.61 14.33L2.13 14.33L1.22 17.60ZM3.86 8.10L2.37 13.48L5.37 13.48L3.86 8.10ZM8.66 15.34L8.66 15.34L8.66 15.34Q8.37 14.64 8.25 13.89L8.25 13.89L8.25 13.89Q8.12 13.15 8.12 12.42L8.12 12.42L8.12 12.42Q8.12 11.70 8.22 11.08L8.22 11.08L8.22 11.08Q8.31 10.46 8.50 9.87L8.50 9.87L8.50 9.87Q8.70 9.28 9.01 8.79L9.01 8.79L9.01 8.79Q9.33 8.29 9.73 7.92L9.73 7.92L9.73 7.92Q10.61 7.12 11.92 7.12L11.92 7.12L11.92 7.12Q12.89 7.12 13.73 7.70L13.73 7.70L13.73 7.70Q14.72 8.38 15.18 10.08L15.18 10.08L14.18 10.33L14.18 10.33Q14.18 10.28 14.17 10.20L14.17 10.20L14.17 10.20Q14.16 10.11 14.09 9.86L14.09 9.86L14.09 9.86Q14.03 9.62 13.94 9.40L13.94 9.40L13.94 9.40Q13.85 9.17 13.67 8.90L13.67 8.90L13.67 8.90Q13.49 8.63 13.26 8.44L13.26 8.44L13.26 8.44Q12.74 7.97 11.95 7.97L11.95 7.97L11.95 7.97Q11.16 7.97 10.60 8.34L10.60 8.34L10.60 8.34Q10.04 8.71 9.73 9.35L9.73 9.35L9.73 9.35Q9.13 10.58 9.13 12.35L9.13 12.35L9.13 12.35Q9.13 14.45 9.68 15.49L9.68 15.49L9.68 15.49Q10.40 16.86 11.94 16.86L11.94 16.86L11.94 16.86Q13.86 16.86 14.16 14.64L14.16 14.64L14.16 14.64Q14.23 14.16 14.23 13.56L14.23 13.56L11.92 13.56L11.92 12.71L15.22 12.71L15.22 17.60L14.40 17.60L14.40 16.28L14.40 16.28Q13.62 17.35 12.76 17.60L12.76 17.60L12.76 17.60Q12.38 17.71 11.75 17.71L11.75 17.71L11.75 17.71Q11.12 17.71 10.47 17.39L10.47 17.39L10.47 17.39Q9.82 17.08 9.39 16.56L9.39 16.56L9.39 16.56Q8.96 16.04 8.66 15.34Z"></path></g><!----><!----></svg>