<?xml version="1.0" standalone="no"?><svg xmlns:xlink="http://www.w3.org/1999/xlink" xmlns="http://www.w3.org/2000/svg" viewBox="0 0 1000 416.66717879446753" preserveAspectRatio="xMaxYMax slice"><g transform="scale(1.2291067221075738)"><rect x="0" y="0" width="813.5999999999999" height="339" fill="#ffffff"/><rect x="0" y="0" width="67.8" height="67.8" fill="#ffffff"/><path d="M 0 33.9 A 33.9 33.9 0 0 1  33.9 0 L 0 33.9 A 33.9 33.9 0 0 0 33.9 0" fill="#949ca9"/><path d="M 33.9 33.9 A 33.9 33.9 0 0 1  67.8 0 L 33.9 33.9 A 33.9 33.9 0 0 0 67.8 0" fill="#8c94a2"/><rect x="203.39999999999998" y="0" width="67.8" height="67.8" fill="#ffffff"/><path d="M 203.4 33.9 A 33.9 33.9 0 0 1  237.3 67.8 L 203.4 33.9 A 33.9 33.9 0 0 0 237.3 67.8" fill="#9098a5"/><path d="M 237.3 67.8 A 33.9 33.9 0 0 1  271.2 33.9 L 237.3 67.8 A 33.9 33.9 0 0 0 271.2 33.9" fill="#8992a0"/><rect x="271.2" y="0" width="67.8" height="67.8" fill="#ffffff"/><path d="M 305.1 33.9 A 33.9 33.9 0 0 1  339 67.8 L 305.1 33.9 A 33.9 33.9 0 0 0 339 67.8" fill="#4952b6"/><path d="M 678 67.8 A 67.8 67.8 0 0 1  745.8 0 L 678 67.8 A 67.8 67.8 0 0 0 745.8 0" fill="#e8e9ec"/><path d="M 745.8 67.8 A 67.8 67.8 0 0 1  813.5999999999999 0 L 745.8 67.8 A 67.8 67.8 0 0 0 813.5999999999999 0" fill="#d1d4da"/><rect x="339" y="67.8" width="67.8" height="67.8" fill="#ffffff"/><path d="M 372.9 67.8 A 33.9 33.9 0 0 1  406.79999999999995 101.69999999999999 L 372.9 67.8 A 33.9 33.9 0 0 0 406.79999999999995 101.69999999999999" fill="#717c8d"/><path d="M 339 101.7 A 33.9 33.9 0 0 1  372.9 135.6 L 339 101.7 A 33.9 33.9 0 0 0 372.9 135.6" fill="#737ac7"/><path d="M 610.2 67.8 A 67.8 67.8 0 0 1  678 135.6 L 610.2 67.8 A 67.8 67.8 0 0 0 678 135.6" fill="#fbfbfd"/><rect x="745.8" y="67.8" width="67.8" height="67.8" fill="#ffffff"/><rect x="406.79999999999995" y="135.6" width="67.8" height="67.8" fill="#ffffff"/><path d="M 440.7 135.6 A 33.9 33.9 0 0 1  474.59999999999997 169.5 L 440.7 135.6 A 33.9 33.9 0 0 0 474.59999999999997 169.5" fill="#f4f5fb"/><path d="M 406.8 203.4 A 33.9 33.9 0 0 1  440.7 169.5 L 406.8 203.4 A 33.9 33.9 0 0 0 440.7 169.5" fill="#d1d3ec"/><rect x="542.4" y="135.6" width="67.8" height="67.8" fill="#ffffff"/><path d="M 406.8 271.2 A 67.8 67.8 0 0 1  474.6 203.4 L 406.8 271.2 A 67.8 67.8 0 0 0 474.6 203.4" fill="#dee0f2"/><path d="M 474.6 271.2 A 67.8 67.8 0 0 1  542.4 203.4 L 474.6 271.2 A 67.8 67.8 0 0 0 542.4 203.4" fill="#444db4"/><rect x="745.8" y="203.39999999999998" width="67.8" height="67.8" fill="#ffffff"/><path d="M 779.7 237.3 A 33.9 33.9 0 0 1  813.6 203.4 L 779.7 237.3 A 33.9 33.9 0 0 0 813.6 203.4" fill="#818a9a"/><path d="M 67.8 339 A 67.8 67.8 0 0 1  135.6 271.2 L 67.8 339 A 67.8 67.8 0 0 0 135.6 271.2" fill="#f6f7f8"/><path d="M 745.8 339 A 67.8 67.8 0 0 1  813.5999999999999 271.2 L 745.8 339 A 67.8 67.8 0 0 0 813.5999999999999 271.2" fill="#5059b9"/></g></svg>