<?xml version="1.0" standalone="no"?><svg xmlns:xlink="http://www.w3.org/1999/xlink" xmlns="http://www.w3.org/2000/svg" viewBox="0 0 1000 1000" preserveAspectRatio="xMaxYMax slice"><g transform="scale(2.949852507374631)"><rect x="0" y="0" width="339" height="339" fill="#edf2f8"/><rect x="0" y="0" width="56.5" height="56.5" fill="#edf2f8"/><path d="M 28.25 56.5 A 28.25 28.25 0 0 1  56.5 28.25 L 28.25 56.5 A 28.25 28.25 0 0 0 56.5 28.25" fill="#b5bcc7"/><path d="M 169.5 0 A 56.5 56.5 0 0 1  226 56.5 L 169.5 0 A 56.5 56.5 0 0 0 226 56.5" fill="#e3e9f0"/><path d="M 226 0 A 56.5 56.5 0 0 1  282.5 56.5 L 226 0 A 56.5 56.5 0 0 0 282.5 56.5" fill="#515ab9"/><rect x="282.5" y="0" width="56.5" height="56.5" fill="#edf2f8"/><path d="M 310.75 28.25 A 28.25 28.25 0 0 1  339 0 L 310.75 28.25 A 28.25 28.25 0 0 0 339 0" fill="#eaeff7"/><path d="M 282.5 56.5 A 28.25 28.25 0 0 1  310.75 28.25 L 282.5 56.5 A 28.25 28.25 0 0 0 310.75 28.25" fill="#a6addb"/><rect x="113" y="56.5" width="56.5" height="56.5" fill="#edf2f8"/><path d="M 113 84.75 A 28.25 28.25 0 0 1  141.25 56.5 L 113 84.75 A 28.25 28.25 0 0 0 141.25 56.5" fill="#515ab9"/><path d="M 141.25 113 A 28.25 28.25 0 0 1  169.5 84.75 L 141.25 113 A 28.25 28.25 0 0 0 169.5 84.75" fill="#8e97a6"/><rect x="169.5" y="56.5" width="56.5" height="56.5" fill="#edf2f8"/><path d="M 197.75 84.75 A 28.25 28.25 0 0 1  226 56.5 L 197.75 84.75 A 28.25 28.25 0 0 0 226 56.5" fill="#d5dbe3"/><path d="M 282.5 56.5 A 56.5 56.5 0 0 1  339 113 L 282.5 56.5 A 56.5 56.5 0 0 0 339 113" fill="#b7bec9"/><rect x="113" y="113" width="56.5" height="56.5" fill="#edf2f8"/><path d="M 141.25 141.25 A 28.25 28.25 0 0 1  169.5 113 L 141.25 141.25 A 28.25 28.25 0 0 0 169.5 113" fill="#c4cae7"/><rect x="169.5" y="113" width="56.5" height="56.5" fill="#edf2f8"/><path d="M 169.5 141.25 A 28.25 28.25 0 0 1  197.75 113 L 169.5 141.25 A 28.25 28.25 0 0 0 197.75 113" fill="#b7bec9"/><path d="M 197.75 169.5 A 28.25 28.25 0 0 1  226 141.25 L 197.75 169.5 A 28.25 28.25 0 0 0 226 141.25" fill="#b2b9c5"/><rect x="0" y="169.5" width="56.5" height="56.5" fill="#edf2f8"/><path d="M 0 197.75 A 28.25 28.25 0 0 1  28.25 226 L 0 197.75 A 28.25 28.25 0 0 0 28.25 226" fill="#b7bfca"/><path d="M 226 226 A 56.5 56.5 0 0 1  282.5 169.5 L 226 226 A 56.5 56.5 0 0 0 282.5 169.5" fill="#a6aebb"/><rect x="56.5" y="226" width="56.5" height="56.5" fill="#edf2f8"/><path d="M 56.5 254.25 A 28.25 28.25 0 0 1  84.75 226 L 56.5 254.25 A 28.25 28.25 0 0 0 84.75 226" fill="#d3d9ee"/><path d="M 56.5 282.5 A 28.25 28.25 0 0 1  84.75 254.25 L 56.5 282.5 A 28.25 28.25 0 0 0 84.75 254.25" fill="#4e57b8"/><path d="M 84.75 254.25 A 28.25 28.25 0 0 1  113 282.5 L 84.75 254.25 A 28.25 28.25 0 0 0 113 282.5" fill="#758091"/><rect x="113" y="226" width="56.5" height="56.5" fill="#edf2f8"/><path d="M 113 282.5 A 28.25 28.25 0 0 1  141.25 254.25 L 113 282.5 A 28.25 28.25 0 0 0 141.25 254.25" fill="#eaeff7"/><path d="M 141.25 282.5 A 28.25 28.25 0 0 1  169.5 254.25 L 141.25 282.5 A 28.25 28.25 0 0 0 169.5 254.25" fill="#a7b0bc"/><path d="M 226 282.5 A 56.5 56.5 0 0 1  282.5 226 L 226 282.5 A 56.5 56.5 0 0 0 282.5 226" fill="#6b74c3"/><rect x="56.5" y="282.5" width="56.5" height="56.5" fill="#edf2f8"/><path d="M 84.75 310.75 A 28.25 28.25 0 0 1  113 282.5 L 84.75 310.75 A 28.25 28.25 0 0 0 113 282.5" fill="#7078c5"/></g></svg>