<?xml version="1.0" standalone="no"?><svg xmlns:xlink="http://www.w3.org/1999/xlink" xmlns="http://www.w3.org/2000/svg" viewBox="0 0 300 674.998506640472" preserveAspectRatio="xMaxYMax slice"><g transform="scale(1.991146037287528)"><rect x="0" y="0" width="188.33333333333331" height="339" fill="#ffffff"/><rect x="37.666666666666664" y="0" width="37.666666666666664" height="37.666666666666664" fill="#ffffff"/><path d="M 56.5 18.83 A 18.83 18.83 0 0 1  75.33 37.66 L 56.5 18.83 A 18.83 18.83 0 0 0 75.33 37.66" fill="#b7bbe2"/><rect x="0" y="75.33333333333333" width="37.666666666666664" height="37.666666666666664" fill="#ffffff"/><path d="M 0 94.16 A 18.83 18.83 0 0 1  18.83 75.33 L 0 94.16 A 18.83 18.83 0 0 0 18.83 75.33" fill="#7b8595"/><path d="M 18.83 75.33 A 18.83 18.83 0 0 1  37.66 94.16 L 18.83 75.33 A 18.83 18.83 0 0 0 37.66 94.16" fill="#343ead"/><path d="M 0 113 A 18.83 18.83 0 0 1  18.83 94.17 L 0 113 A 18.83 18.83 0 0 0 18.83 94.17" fill="#c4c7e7"/><path d="M 18.83 113 A 18.83 18.83 0 0 1  37.66 94.17 L 18.83 113 A 18.83 18.83 0 0 0 37.66 94.17" fill="#5a62bc"/><path d="M 37.67 75.33 A 37.67 37.67 0 0 1  75.34 113 L 37.67 75.33 A 37.67 37.67 0 0 0 75.34 113" fill="#717b8c"/><rect x="75.33333333333333" y="75.33333333333333" width="37.666666666666664" height="37.666666666666664" fill="#ffffff"/><path d="M 75.33 94.17 A 18.83 18.83 0 0 1  94.16 113 L 75.33 94.17 A 18.83 18.83 0 0 0 94.16 113" fill="#9ca3af"/><rect x="113" y="75.33333333333333" width="37.666666666666664" height="37.666666666666664" fill="#ffffff"/><path d="M 113 113 A 18.83 18.83 0 0 1  131.82999999999998 94.17 L 113 113 A 18.83 18.83 0 0 0 131.82999999999998 94.17" fill="#b8bbe2"/><path d="M 37.67 150.67000000000002 A 37.67 37.67 0 0 1  75.34 113 L 37.67 150.67000000000002 A 37.67 37.67 0 0 0 75.34 113" fill="#a6adb8"/><rect x="113" y="113" width="37.666666666666664" height="37.666666666666664" fill="#ffffff"/><path d="M 131.83 113 A 18.83 18.83 0 0 1  150.66000000000003 131.82999999999998 L 131.83 113 A 18.83 18.83 0 0 0 150.66000000000003 131.82999999999998" fill="#b4bac3"/><path d="M 113 150.66000000000003 A 18.83 18.83 0 0 1  131.82999999999998 131.83 L 113 150.66000000000003 A 18.83 18.83 0 0 0 131.82999999999998 131.83" fill="#6b72c3"/><path d="M 150.67 113 A 37.67 37.67 0 0 1  188.33999999999997 150.67000000000002 L 150.67 113 A 37.67 37.67 0 0 0 188.33999999999997 150.67000000000002" fill="#8a90d0"/><rect x="113" y="150.66666666666666" width="37.666666666666664" height="37.666666666666664" fill="#ffffff"/><path d="M 113 169.5 A 18.83 18.83 0 0 1  131.82999999999998 150.67 L 113 169.5 A 18.83 18.83 0 0 0 131.82999999999998 150.67" fill="#898ecf"/><path d="M 131.83 169.5 A 18.83 18.83 0 0 1  150.66000000000003 150.67 L 131.83 169.5 A 18.83 18.83 0 0 0 150.66000000000003 150.67" fill="#969bd5"/><path d="M 113 188.32999999999998 A 18.83 18.83 0 0 1  131.82999999999998 169.5 L 113 188.32999999999998 A 18.83 18.83 0 0 0 131.82999999999998 169.5" fill="#666dc1"/><path d="M 150.67 150.67 A 37.67 37.67 0 0 1  188.33999999999997 188.33999999999997 L 150.67 150.67 A 37.67 37.67 0 0 0 188.33999999999997 188.33999999999997" fill="#c7cae8"/><path d="M 0 226 A 37.67 37.67 0 0 1  37.67 188.33 L 0 226 A 37.67 37.67 0 0 0 37.67 188.33" fill="#d9dbf0"/><rect x="0" y="226" width="37.666666666666664" height="37.666666666666664" fill="#ffffff"/><path d="M 18.83 226 A 18.83 18.83 0 0 1  37.66 244.82999999999998 L 18.83 226 A 18.83 18.83 0 0 0 37.66 244.82999999999998" fill="#b8bdc6"/><rect x="75.33333333333333" y="226" width="37.666666666666664" height="37.666666666666664" fill="#ffffff"/><rect x="150.66666666666666" y="226" width="37.666666666666664" height="37.666666666666664" fill="#ffffff"/><path d="M 150.67 244.82999999999998 A 18.83 18.83 0 0 1  169.5 226 L 150.67 244.82999999999998 A 18.83 18.83 0 0 0 169.5 226" fill="#abafdd"/><path d="M 169.5 263.66 A 18.83 18.83 0 0 1  188.32999999999998 244.83 L 169.5 263.66 A 18.83 18.83 0 0 0 188.32999999999998 244.83" fill="#8c94a2"/><path d="M 113 301.34000000000003 A 37.67 37.67 0 0 1  150.67000000000002 263.67 L 113 301.34000000000003 A 37.67 37.67 0 0 0 150.67000000000002 263.67" fill="#c5c9d0"/></g></svg>