<svg data-v-423bf9ae="" xmlns="http://www.w3.org/2000/svg" viewBox="0 0 325.1106813926524 60" class="font"><!----><!----><defs data-v-423bf9ae=""><linearGradient data-v-423bf9ae="" gradientTransform="rotate(25)" id="ed496953-1858-4290-b657-aaa6e3a10347" x1="0%" y1="0%" x2="100%" y2="0%"><stop data-v-423bf9ae="" offset="0%" style="stop-color: rgb(233, 13, 202); stop-opacity: 1;"></stop><stop data-v-423bf9ae="" offset="100%" style="stop-color: rgb(21, 54, 241); stop-opacity: 1;"></stop></linearGradient></defs><g data-v-423bf9ae="" id="99e24a54-b283-4867-aa85-b8a74c8c9549" fill="url(#ed496953-1858-4290-b657-aaa6e3a10347)" transform="matrix(6.036217558641619,0,0,6.036217558641619,-1.6901443995112118,-30.241450873537914)"><path d="M5.52 5.08L3.78 5.08L0.28 14.88L1.65 14.88L2.48 12.56L6.82 12.56L7.64 14.88L9.02 14.88ZM4.63 6.47L4.66 6.47L6.37 11.30L2.93 11.30ZM10.56 14.88L15.58 14.88L15.58 13.62L11.96 13.62L11.96 5.08L10.56 5.08ZM18.66 10.47L22.01 10.47L22.01 9.21L18.66 9.21L18.66 6.34L22.85 6.34L22.85 5.08L17.26 5.08L17.26 14.88L22.85 14.88L22.85 13.62L18.66 13.62ZM24.81 9.70L26.43 10.64L29.92 10.64L29.92 13.69L26.07 13.69L26.07 12.57L24.67 12.57L24.67 14.01L26.29 14.95L29.69 14.95L31.32 14.01L31.32 10.18L29.69 9.24L26.21 9.24L26.21 6.27L29.92 6.27L29.92 7.39L31.32 7.39L31.32 5.95L29.69 5.01L26.43 5.01L24.81 5.95ZM33.84 9.70L35.46 10.64L38.95 10.64L38.95 13.69L35.10 13.69L35.10 12.57L33.70 12.57L33.70 14.01L35.32 14.95L38.72 14.95L40.35 14.01L40.35 10.18L38.72 9.24L35.24 9.24L35.24 6.27L38.95 6.27L38.95 7.39L40.35 7.39L40.35 5.95L38.72 5.01L35.46 5.01L33.84 5.95ZM42.87 14.88L44.27 14.88L44.27 5.08L42.87 5.08ZM54.14 14.01L54.14 5.95L52.51 5.01L48.41 5.01L46.79 5.95L46.79 14.01L48.41 14.95L52.51 14.95ZM48.19 6.27L52.74 6.27L52.74 13.69L48.19 13.69Z"></path></g><!----><!----></svg>